<svg width="40" height="53" viewBox="0 0 40 53" fill="none" xmlns="http://www.w3.org/2000/svg">
  <path d="M38.627 21.3122L39.993 20.8674C39.993 20.8674 40.2145 18.6464 38.0414 16.1916L40 15.5542V14.1491C40 11.9748 35.3701 9.70281 35.0018 9.51583L40 7.88831C40.0085 7.25515 39.7023 6.65032 39.1124 6.41943L19.4088 0L0.0889455 6.29195C0.0367336 6.30895 4.41107e-05 6.35428 4.41107e-05 6.41519C4.41107e-05 7.00727 0.395162 7.53278 0.934215 7.77499L4.78238 9.02857C4.4141e-05 11.0173 4.41107e-05 13.0924 4.41107e-05 13.0924V15.5514L1.25454 15.9608C-0.0295897 17.669 0.0240334 19.2583 0.0127443 19.594C4.41105e-05 19.975 1.04287 20.7881 1.04287 20.7881C-0.11708 23.2032 0.0127443 26.0828 0.0127443 26.0828C0.0254445 26.3151 0.474185 26.7415 0.474185 26.7415C0.0734231 29.3081 0.00992205 31.6921 4.41107e-05 32.3663C-0.00136702 32.4966 0.0310891 32.6255 0.0960012 32.7388C0.544742 33.5264 1.26724 33.8437 1.26724 33.8437C1.26724 33.8437 20.2667 40.0322 20.6336 40.1512L40 33.8437C40 29.9116 39.437 27.539 39.437 27.539L39.993 27.3577C39.993 27.3577 40.1764 24.0729 38.627 21.3122V21.3122ZM38.6496 25.1947C38.5212 24.9185 38.3801 24.6494 38.2277 24.3873C37.7253 23.5261 37.0973 22.7414 36.3861 22.0417L37.9468 21.5332C38.3956 22.7202 38.5875 23.9355 38.6496 25.1947ZM5.20572 22.1436L20.6379 27.1707L35.9741 22.1762C37.5743 23.5884 38.0865 26.2202 38.0865 26.2202L19.4031 32.3054L2.13509 26.6806C2.68402 24.927 3.57586 23.4468 5.20713 22.1436H5.20572ZM2.06171 22.774C2.24516 22.2796 2.46812 21.7994 2.73764 21.3391L3.17086 21.4807C2.76163 21.8759 2.3905 22.3065 2.06171 22.774ZM20.0043 22.0657C20.2498 21.985 30.1475 18.7611 30.1715 18.7526C30.1715 18.7526 33.252 20.3702 34.2624 20.9751C34.2624 20.9751 23.6125 24.444 20.3458 25.5078C19.77 25.6947 19.4243 25.8081 19.4045 25.8137C19.4045 25.8137 6.12578 21.4892 6.11731 21.4864C7.53409 20.5416 9.08069 19.7951 10.5807 18.9963C10.6047 19.0048 19.8674 22.0204 20.0057 22.0657H20.0043ZM11.1268 15.2313C11.2962 15.1435 11.4655 15.0556 11.6334 14.965C12.9782 14.244 14.2652 13.4225 15.4915 12.5145L16.2577 12.7638C15.1443 13.8658 13.9138 14.8432 12.6128 15.7157C12.6128 15.7157 12.3446 15.6279 12.037 15.5273C11.6193 15.3913 11.1268 15.2299 11.1268 15.2299V15.2313ZM31.0365 18.4707C31.0365 18.4707 34.1636 17.4523 34.2581 17.4211C34.2596 17.4211 34.261 17.4226 34.261 17.4226C34.261 17.4226 36.3706 18.6081 37.1947 20.0189L34.8861 20.7711C34.0436 20.043 31.0365 18.4707 31.0365 18.4707V18.4707ZM33.9166 13.6165C33.4778 13.7596 30.5666 14.7072 30.5666 14.7072C28.5699 13.7936 26.3036 12.3445 26.3036 12.3445L29.3432 11.3544C29.3432 11.3544 33.5286 13.3417 33.9731 13.5967C33.9731 13.5967 33.9533 13.6023 33.9181 13.6151L33.9166 13.6165ZM29.6691 15.0004C29.6691 15.0004 29.6268 15.0146 29.5506 15.0386C28.9918 15.22 26.6493 15.9834 26.6493 15.9834C24.8896 14.8842 23.2823 13.329 23.2823 13.329L25.7053 12.54C25.7053 12.54 27.8784 14.0953 29.6691 15.0004V15.0004ZM26.0566 16.1775C26.0566 16.1775 24.2052 16.7809 22.557 17.3177C21.232 17.7498 20.0367 18.1393 20.0367 18.1393L14.7732 16.4211C16.0079 15.5273 17.1693 14.533 18.215 13.4012L20.6407 14.1916L22.8844 13.4607C22.8844 13.4607 24.4282 15.0018 26.058 16.1775H26.0566ZM16.9562 12.0371C16.9252 12.0272 16.3692 11.8459 16.3692 11.8459C17.0734 11.285 17.769 10.6858 18.4492 10.0484C18.5579 9.94644 18.6665 9.84445 18.7738 9.74105C18.2855 10.5045 17.5673 11.37 16.9562 12.0371V12.0371ZM17.0846 8.79485C16.1857 9.63198 15.2403 10.4224 14.2553 11.1575C14.2215 11.1462 13.0135 10.7524 13.0107 10.7524C14.419 9.95494 15.7666 9.03565 17.0917 8.11495C17.5221 7.81607 17.9525 7.51436 18.3787 7.20841C18.6566 7.0101 18.9318 6.81038 19.2084 6.60924C18.555 7.38547 17.8241 8.10503 17.0846 8.79344V8.79485ZM10.6823 9.9946C10.6823 9.9946 9.17806 9.5045 8.63477 9.32744C8.51483 9.28778 8.44145 9.2637 8.44145 9.2637C8.44145 9.2637 11.0873 8.38833 19.4074 3.95478V4.197C14.546 7.96338 10.6837 9.99318 10.6837 9.99318L10.6823 9.9946ZM11.9072 11.3473L13.3437 11.8148C12.5605 12.3573 11.752 12.8644 10.9208 13.329C10.2124 13.7256 9.48851 14.0939 8.76319 14.4593C8.76319 14.4593 8.5882 14.4027 8.34549 14.3233C7.7768 14.1378 6.83275 13.829 6.83275 13.829C7.07688 13.693 7.32101 13.5627 7.55949 13.438C8.98756 12.6944 10.4707 12.0683 11.9086 11.3459L11.9072 11.3473ZM8.22837 18.2299C7.05854 18.8404 5.89294 19.4594 4.79367 20.1875C4.73722 20.2243 4.68219 20.2626 4.62715 20.2994C4.40137 20.4538 4.18123 20.6167 3.96815 20.7853L3.26117 20.5544C4.14031 19.3773 5.29462 18.4509 6.53642 17.6775C6.54347 17.6804 8.22978 18.2285 8.22978 18.2285L8.22837 18.2299ZM38.6566 19.5444L37.6759 19.8646C36.729 18.543 34.8889 17.2186 34.8889 17.2186C34.8889 17.2186 35.7793 16.9282 36.5456 16.6789C37.1227 16.4905 37.6293 16.3262 37.6293 16.3262C38.8147 18.0019 38.6581 19.5458 38.6581 19.5458L38.6566 19.5444ZM38.2107 12.1901C38.2277 12.2043 38.2361 12.2128 38.2361 12.2128L34.7097 13.3615C33.173 12.3162 30.6245 11.1717 30.3253 11.0385L34.038 9.82887C36.9012 11.1306 38.0329 12.04 38.2107 12.1901ZM20.6393 1.35414L37.6491 6.89395C37.6491 6.89395 32.8399 8.46057 32.8371 8.46198C26.8356 6.08373 20.6407 2.5978 20.6407 2.5978V1.35414H20.6393ZM20.6393 3.3542C20.6393 3.3542 21.6313 3.89529 23.0551 4.64602C25.6488 6.01291 29.6748 8.07529 31.7336 8.82176C31.7308 8.82176 28.1479 9.99035 28.1479 9.99035C26.1752 9.07106 20.6407 5.06529 20.6407 5.06529V3.35561L20.6393 3.3542ZM20.6393 5.63329C20.6393 5.63329 21.2771 6.1064 22.1817 6.75939C23.741 7.88406 26.0933 9.54558 27.3535 10.2467C27.3506 10.2467 24.6921 11.1136 24.5961 11.1448C22.8237 9.90111 20.6393 7.52995 20.6393 7.52995V5.63329V5.63329ZM20.6393 8.07104C20.6393 8.07104 22.1379 9.74247 24.1177 11.3006L22.0532 11.9734C21.4465 11.3686 21.0048 10.6207 20.7649 9.80196C20.6774 9.50167 20.6393 9.18863 20.6393 8.87559V8.07104V8.07104ZM19.9831 11.1618C20.1214 10.9507 20.2597 10.734 20.3867 10.5102C20.4982 10.6703 20.6125 10.8275 20.7296 10.9847C21.0175 11.37 21.318 11.7454 21.6299 12.1108L19.4045 12.836L18.8627 12.659C19.262 12.1802 19.6402 11.683 19.9831 11.1618V11.1618ZM2.39897 7.29764L19.4045 1.75925V2.01138C11.0746 6.47609 5.9762 8.4634 5.9762 8.4634L2.39897 7.29764V7.29764ZM3.80164 11.5924C4.88398 10.9153 6.03123 10.3431 7.19542 9.81471L9.51673 10.5711C7.93767 11.3247 6.32051 12.0244 4.8233 12.9182C4.73016 12.9734 4.63844 13.0301 4.54531 13.0868L2.59371 12.4493C2.97471 12.1349 3.38535 11.853 3.80164 11.5938V11.5924ZM3.13276 16.5713L4.33364 16.9622C3.43051 17.6095 2.60359 18.3588 1.93894 19.2626C1.76961 19.492 1.61438 19.73 1.47045 19.9736L1.40694 19.9524C1.60733 18.6379 2.25504 17.5231 3.13417 16.5713H3.13276ZM38.6397 32.5292C38.6397 32.5292 38.3702 32.617 37.896 32.7714C34.3597 33.923 19.4045 38.7942 19.4045 38.7942C19.4045 38.7942 19.4017 38.7942 19.3989 38.7957C18.96 38.6526 1.34203 32.9145 1.34203 32.9145C1.36461 31.1283 1.47186 29.2968 1.89237 27.556L20.6379 33.6624L38.3956 27.8789C38.3956 27.8789 38.7865 31.2402 38.6383 32.5292H38.6397Z" fill="#B49164"/>
  <path d="M4.35365 45.8171C3.46746 45.8171 2.65041 46.1882 2.05068 46.8639L2.15793 47.014C2.48672 46.8724 2.78588 46.803 3.07375 46.803C4.25628 46.803 4.99007 47.7662 4.99007 49.3158V52.8272H6.78504V48.2846C6.78504 46.5806 5.56441 45.8171 4.35365 45.8171V45.8171Z" fill="#B49164"/>
  <path d="M1.79527 46.0452H0.000305176V52.8272H1.79527V46.0452Z" fill="#B49164"/>
  <path d="M12.0415 51.9476C10.9846 51.9476 10.3792 51.1005 10.3792 49.6232V46.0452H8.58423V50.5198C8.58423 52.2337 9.75124 53 10.9084 53C11.8087 53 12.6793 52.5552 13.296 51.7804L13.1761 51.6402C12.8317 51.8385 12.4296 51.949 12.0429 51.949L12.0415 51.9476Z" fill="#B49164"/>
  <path d="M15.3676 46.0452H13.5726V52.8272H15.3676V46.0452Z" fill="#B49164"/>
  <path d="M20.2162 48.5523C19.2425 48.2379 18.3225 47.939 18.3154 47.2931C18.3154 47.1373 18.3521 47.0183 18.3846 46.946L18.4198 46.8639L18.5539 46.8313C18.6583 46.8058 18.7783 46.7931 18.9109 46.7931C19.4994 46.7931 20.3319 47.0721 20.7158 47.5891L20.7708 47.6628L22.2609 46.6047L22.1876 46.5253C21.7812 46.0877 21.1476 45.8384 20.4519 45.8384C19.6489 45.8384 18.9053 46.1528 18.4608 46.6797L18.3648 46.7931L18.2731 46.82C17.8102 46.9545 17.0285 47.4007 17.0285 48.2194C17.0214 49.3484 18.2519 49.7549 19.4443 50.1473C20.3418 50.4419 21.1885 50.7209 21.2562 51.2918C21.2887 51.5311 21.1871 51.7351 21.0968 51.864L21.0262 51.9632L20.8823 51.9972C20.7581 52.0269 20.6212 52.0411 20.4773 52.0411C19.7308 52.0411 18.8545 51.6445 18.3479 51.075L18.2914 51.0127L16.79 52.0694L16.8662 52.1487C17.3827 52.6827 18.1376 52.9901 18.9377 52.9901C19.7378 52.9901 20.4956 52.6856 20.9726 52.153L21.0699 52.0439L21.1955 52.0099C21.3479 51.9702 22.6758 51.5807 22.6222 50.3456C22.5784 49.32 21.3762 48.9305 20.2148 48.5551L20.2162 48.5523Z" fill="#B49164"/>
  <path d="M27.5061 51.9476C26.4492 51.9476 25.8438 51.1005 25.8438 49.6232V46.0452H24.0488V50.5198C24.0488 52.2337 25.2159 53 26.373 53C27.2733 53 28.144 52.5552 28.7606 51.7804L28.6407 51.6402C28.2964 51.8385 27.8942 51.949 27.5075 51.949L27.5061 51.9476Z" fill="#B49164"/>
  <path d="M30.8322 46.0452H29.0372V52.8272H30.8322V46.0452Z" fill="#B49164"/>
  <path d="M34.4249 42.7745H32.63V52.8258H34.4249V42.7745Z" fill="#B49164"/>
  <path d="M40.0003 52.8258L36.5374 48.8753L39.2199 46.0452H37.5506L34.6055 49.4079L37.5308 52.8258H40.0003Z" fill="#B49164"/>
</svg>

