<?xml version="1.0" standalone="no"?>
<!DOCTYPE svg PUBLIC "-//W3C//DTD SVG 20010904//EN"
  "http://www.w3.org/TR/2001/REC-SVG-20010904/DTD/svg10.dtd">
<svg version="1.0" xmlns="http://www.w3.org/2000/svg"
     width="290.000000pt" height="174.000000pt" viewBox="0 0 290.000000 174.000000"
     preserveAspectRatio="xMidYMid meet">

  <g transform="translate(0.000000,174.000000) scale(0.100000,-0.100000)"
     fill="#FFFFFF" stroke="none">
    <path d="M0 870 l0 -870 1450 0 1450 0 0 870 0 870 -1450 0 -1450 0 0 -870z
m1664 658 c264 -86 273 -93 180 -122 l-56 -18 50 -33 c27 -19 52 -41 56 -50
12 -32 6 -57 -14 -62 -24 -7 -24 -5 0 -45 24 -39 25 -64 5 -75 -12 -7 -12 -14
-1 -48 8 -24 13 -82 12 -143 l-1 -103 -200 -66 c-110 -36 -210 -68 -222 -71
-28 -5 -464 134 -479 154 -13 16 -12 213 1 253 4 14 2 33 -5 46 -9 17 -9 29 3
58 13 30 13 36 1 41 -22 9 -16 62 11 94 13 16 39 36 56 45 l32 15 -44 13 c-46
13 -77 34 -66 45 9 9 419 142 441 143 11 1 119 -31 240 -71z m-136 -916 c4
-23 -4 -27 -27 -13 -17 11 -7 45 12 39 6 -3 13 -14 15 -26z m302 3 c0 -14 -8
-29 -19 -35 -26 -13 -41 -12 -17 1 14 9 15 13 6 19 -17 10 -5 40 15 40 9 0 15
-9 15 -25z m-710 -40 l-34 -35 66 0 c114 0 158 -32 129 -96 -13 -29 -31 -32
-24 -5 3 13 -4 29 -21 45 -23 24 -33 26 -106 26 -49 0 -80 4 -80 11 0 21 64
89 84 89 17 0 16 -4 -14 -35z m385 5 c-3 -5 -14 -10 -23 -10 -15 0 -15 2 -2
10 20 13 33 13 25 0z m-95 -125 l0 -75 -212 0 c-190 1 -211 2 -194 15 16 12
56 15 188 15 l168 0 0 60 c0 57 1 60 25 60 24 0 25 -2 25 -75z m110 10 c0 -57
-3 -66 -24 -80 -19 -13 -29 -13 -52 -4 -25 11 -26 13 -9 16 31 7 45 33 45 85
0 41 3 48 20 48 18 0 20 -7 20 -65z m110 5 l0 -60 115 0 115 0 0 60 c0 53 2
60 20 60 18 0 20 -7 20 -75 l0 -75 -129 0 c-75 0 -132 4 -136 10 -4 6 -16 3
-31 -7 -21 -13 -29 -14 -52 -3 -24 12 -25 14 -7 18 31 6 45 32 45 84 0 41 3
48 20 48 18 0 20 -7 20 -60z m187 45 c14 -14 14 -18 -2 -36 -17 -18 -19 -18
-37 -2 -17 15 -17 17 -2 35 21 22 21 22 41 3z m-47 -290 c0 -108 -1 -115 -20
-115 -19 0 -20 7 -20 115 0 108 1 115 20 115 19 0 20 -7 20 -115z m-750 -35
c0 -73 -2 -80 -20 -80 -18 0 -20 7 -20 80 0 73 2 80 20 80 18 0 20 -7 20 -80z
m102 63 c14 -12 18 -31 18 -80 0 -56 -2 -63 -20 -63 -17 0 -20 7 -20 48 0 50
-21 92 -46 92 -8 0 -12 5 -9 10 10 16 57 12 77 -7z m98 -37 c0 -57 20 -92 46
-82 8 3 14 1 14 -3 0 -11 -25 -21 -55 -21 -33 0 -45 27 -45 99 0 54 2 61 20
61 18 0 20 -7 20 -54z m115 -26 c0 -70 -1 -75 -22 -78 -22 -3 -23 0 -23 71 0
77 4 90 30 85 12 -3 15 -18 15 -78z m149 71 c3 -5 -1 -14 -8 -20 -11 -9 -19
-9 -35 1 -16 10 -23 10 -32 1 -10 -10 -2 -17 35 -32 60 -26 68 -47 30 -78 -29
-23 -68 -29 -92 -14 -10 6 -10 10 2 20 11 9 20 10 36 1 22 -12 50 -7 50 8 0 5
-20 17 -44 26 -57 22 -66 44 -29 73 28 23 77 31 87 14z m94 -58 c2 -51 6 -63
22 -68 11 -4 25 -3 32 1 9 6 9 3 -1 -9 -20 -25 -67 -22 -85 5 -16 23 -22 118
-9 132 4 4 14 5 23 4 11 -2 16 -19 18 -65z m112 -13 c0 -73 -2 -80 -20 -80
-18 0 -20 7 -20 80 0 73 2 80 20 80 18 0 20 -7 20 -80z m162 47 l-31 -32 34
-40 c41 -48 42 -55 12 -55 -16 0 -35 14 -56 40 l-32 40 32 40 c19 23 41 40 53
40 18 0 16 -4 -12 -33z"/>
    <path d="M1457 1554 c3 -10 66 -46 140 -81 l134 -64 57 19 57 19 -191 61
c-106 34 -194 62 -197 62 -4 0 -4 -7 0 -16z"/>
    <path d="M1230 1499 c-96 -32 -177 -59 -180 -59 -3 -1 12 -8 34 -16 38 -14 39
-13 170 48 128 61 180 89 161 87 -6 0 -89 -27 -185 -60z"/>
    <path d="M1457 1503 c5 -21 151 -123 175 -123 9 0 29 5 45 11 27 10 24 12 -91
70 -65 32 -122 59 -126 59 -5 0 -6 -8 -3 -17z"/>
    <path d="M1302 1451 c-62 -31 -110 -60 -106 -64 14 -13 44 -7 82 17 65 41 156
106 146 105 -5 0 -60 -26 -122 -58z"/>
    <path d="M1460 1445 c0 -33 76 -98 104 -89 39 12 35 20 -34 66 -67 46 -70 47
-70 23z"/>
    <path d="M1348 1402 c-56 -37 -70 -52 -45 -52 11 0 118 89 107 90 -3 0 -31
-17 -62 -38z"/>
    <path d="M1460 1389 c1 -37 23 -61 49 -51 21 7 20 9 -14 42 -34 33 -35 34 -35
9z"/>
    <path d="M1097 1354 c-26 -14 -45 -29 -42 -34 10 -16 32 -12 88 16 45 23 49
28 32 35 -27 10 -24 11 -78 -17z"/>
    <path d="M1723 1368 c-18 -6 -33 -14 -33 -17 0 -3 21 -16 48 -29 40 -19 52
-21 80 -11 17 6 29 15 26 20 -5 9 -80 50 -86 48 -2 -1 -18 -6 -35 -11z"/>
    <path d="M1375 1350 c-10 -11 -13 -20 -8 -20 13 0 38 29 31 35 -3 3 -13 -4
-23 -15z"/>
    <path d="M1432 1340 c-17 -28 -15 -32 11 -24 29 9 29 8 21 28 -8 21 -17 20
-32 -4z"/>
    <path d="M1198 1318 c-27 -11 -48 -24 -48 -29 0 -18 38 -13 82 11 79 42 53 56
-34 18z"/>
    <path d="M1618 1333 c-28 -7 -21 -21 22 -43 35 -18 46 -19 83 -9 l42 11 -45
24 c-44 23 -67 26 -102 17z"/>
    <path d="M1304 1296 c-18 -12 -40 -26 -50 -33 -18 -11 -17 -12 6 -12 27 0 99
52 84 61 -5 3 -23 -4 -40 -16z"/>
    <path d="M1531 1301 c-10 -7 -4 -15 26 -35 35 -23 43 -25 72 -15 l33 12 -42
23 c-45 26 -66 29 -89 15z"/>
    <path d="M1366 1264 c-22 -19 -37 -36 -35 -38 2 -2 29 -11 59 -20 52 -16 57
-15 118 5 l64 21 -29 30 c-23 24 -33 28 -59 23 -17 -3 -42 -1 -55 4 -20 7 -31
3 -63 -25z"/>
    <path d="M1811 1219 l-25 -10 32 -32 c24 -24 34 -29 43 -20 9 9 9 19 -1 42
-14 34 -14 34 -49 20z"/>
    <path d="M1034 1195 c-24 -37 -12 -40 21 -5 22 23 25 30 12 30 -9 0 -24 -11
-33 -25z"/>
    <path d="M1090 1165 c-41 -43 -35 -44 31 -6 38 21 46 30 34 35 -26 10 -29 8
-65 -29z"/>
    <path d="M1728 1193 c-27 -7 -22 -17 20 -41 23 -13 47 -19 60 -15 29 7 28 17
-4 42 -26 21 -41 23 -76 14z"/>
    <path d="M1178 1144 c-27 -13 -48 -26 -48 -29 0 -6 276 -95 296 -95 17 0 325
97 332 105 3 2 -16 14 -42 27 l-46 22 -115 -38 -115 -37 -98 32 c-53 17 -101
33 -107 35 -5 2 -31 -8 -57 -22z"/>
    <path d="M1827 1102 c-3 -4 6 -21 19 -37 l25 -30 -7 30 c-4 17 -9 33 -11 38
-5 9 -20 9 -26 -1z"/>
    <path d="M1076 1071 c-13 -14 -29 -38 -35 -52 l-9 -26 193 -61 c106 -34 198
-62 205 -62 7 0 105 30 217 67 135 44 203 71 203 80 0 26 -31 73 -48 73 -9 0
-91 -24 -181 -54 l-163 -53 -179 57 -178 57 -25 -26z"/>
    <path d="M1020 941 c0 -16 -3 -41 -6 -57 l-6 -29 209 -69 208 -69 223 72 222
72 0 37 c0 71 1 70 -208 3 -104 -33 -197 -61 -207 -61 -9 0 -107 29 -217 65
-110 36 -204 65 -209 65 -5 0 -9 -13 -9 -29z"/>
    <path d="M1500 620 c0 -5 5 -10 11 -10 5 0 7 5 4 10 -3 6 -8 10 -11 10 -2 0
-4 -4 -4 -10z"/>
    <path d="M1800 620 c0 -5 5 -10 10 -10 6 0 10 5 10 10 0 6 -4 10 -10 10 -5 0
-10 -4 -10 -10z"/>
  </g>
</svg>
